<svg width="266" height="88" viewBox="0 0 266 88" fill="none" xmlns="http://www.w3.org/2000/svg">
<path fill-rule="evenodd" clip-rule="evenodd" d="M23.5454 80H29.2726L48.0908 45.6363L68.5454 30.909C68.5454 30.909 66.909 30.0909 66.4999 29.2727C66.0908 28.4545 65.6817 26.8181 65.6817 26.8181L43.9999 43.1818L23.5454 80Z" fill="#276ECE"/>
<path d="M47.6818 8L8 80H18.482L47.6818 27.1756L77.256 80H87.3636L47.6818 8Z" fill="white"/>
<path d="M72.6366 80H67.4195L51.3638 50.1363L54.6366 47.2727L72.6366 80Z" fill="#276ECE"/>
<path d="M72.2275 30.5001C74.9387 30.5001 77.1365 28.3022 77.1365 25.591C77.1365 22.8798 74.9387 20.6819 72.2275 20.6819C69.5162 20.6819 67.3184 22.8798 67.3184 25.591C67.3184 28.3022 69.5162 30.5001 72.2275 30.5001Z" fill="#276ECE"/>
<path d="M103.694 49.9999L114.302 26.1999H119.742L130.384 49.9999H124.604L115.9 28.9879H118.076L109.338 49.9999H103.694ZM108.998 44.8999L110.46 40.7179H122.7L124.196 44.8999H108.998ZM132.479 49.9999V31.7079H137.545V36.8759L136.831 35.3799C137.375 34.0879 138.248 33.1132 139.449 32.4559C140.651 31.7759 142.113 31.4359 143.835 31.4359V36.3319C143.609 36.3092 143.405 36.2979 143.223 36.2979C143.042 36.2752 142.849 36.2639 142.645 36.2639C141.195 36.2639 140.016 36.6832 139.109 37.5219C138.225 38.3379 137.783 39.6186 137.783 41.3639V49.9999H132.479ZM155.696 50.2719C153.724 50.2719 151.968 49.8752 150.426 49.0819C148.885 48.2659 147.672 47.1439 146.788 45.7159C145.927 44.2879 145.496 42.6672 145.496 40.8539C145.496 39.0179 145.927 37.3972 146.788 35.9919C147.672 34.5639 148.885 33.4532 150.426 32.6599C151.968 31.8439 153.724 31.4359 155.696 31.4359C157.623 31.4359 159.3 31.8439 160.728 32.6599C162.156 33.4532 163.21 34.5979 163.89 36.0939L159.776 38.3039C159.3 37.4426 158.7 36.8079 157.974 36.3999C157.272 35.9919 156.501 35.7879 155.662 35.7879C154.756 35.7879 153.94 35.9919 153.214 36.3999C152.489 36.8079 151.911 37.3859 151.48 38.1339C151.072 38.8819 150.868 39.7886 150.868 40.8539C150.868 41.9192 151.072 42.8259 151.48 43.5739C151.911 44.3219 152.489 44.8999 153.214 45.3079C153.94 45.7159 154.756 45.9199 155.662 45.9199C156.501 45.9199 157.272 45.7272 157.974 45.3419C158.7 44.9339 159.3 44.2879 159.776 43.4039L163.89 45.6479C163.21 47.1212 162.156 48.2659 160.728 49.0819C159.3 49.8752 157.623 50.2719 155.696 50.2719ZM177.656 50.2719C176.047 50.2719 174.664 49.9319 173.508 49.2519C172.352 48.5719 171.468 47.5406 170.856 46.1579C170.244 44.7526 169.938 42.9846 169.938 40.8539C169.938 38.7006 170.256 36.9326 170.89 35.5499C171.548 34.1672 172.454 33.1359 173.61 32.4559C174.766 31.7759 176.115 31.4359 177.656 31.4359C179.379 31.4359 180.92 31.8212 182.28 32.5919C183.663 33.3626 184.751 34.4506 185.544 35.8559C186.36 37.2612 186.768 38.9272 186.768 40.8539C186.768 42.7579 186.36 44.4126 185.544 45.8179C184.751 47.2232 183.663 48.3226 182.28 49.1159C180.92 49.8866 179.379 50.2719 177.656 50.2719ZM166.844 49.9999V24.7719H172.148V35.4139L171.808 40.8199L171.91 46.2599V49.9999H166.844ZM176.738 45.9199C177.622 45.9199 178.404 45.7159 179.084 45.3079C179.787 44.8999 180.342 44.3219 180.75 43.5739C181.181 42.8032 181.396 41.8966 181.396 40.8539C181.396 39.7886 181.181 38.8819 180.75 38.1339C180.342 37.3859 179.787 36.8079 179.084 36.3999C178.404 35.9919 177.622 35.7879 176.738 35.7879C175.854 35.7879 175.061 35.9919 174.358 36.3999C173.656 36.8079 173.1 37.3859 172.692 38.1339C172.284 38.8819 172.08 39.7886 172.08 40.8539C172.08 41.8966 172.284 42.8032 172.692 43.5739C173.1 44.3219 173.656 44.8999 174.358 45.3079C175.061 45.7159 175.854 45.9199 176.738 45.9199ZM190.319 49.9999V31.7079H195.623V49.9999H190.319ZM192.971 29.1579C191.996 29.1579 191.203 28.8746 190.591 28.3079C189.979 27.7412 189.673 27.0386 189.673 26.1999C189.673 25.3612 189.979 24.6586 190.591 24.0919C191.203 23.5252 191.996 23.2419 192.971 23.2419C193.946 23.2419 194.739 23.5139 195.351 24.0579C195.963 24.5792 196.269 25.2592 196.269 26.0979C196.269 26.9819 195.963 27.7186 195.351 28.3079C194.762 28.8746 193.968 29.1579 192.971 29.1579ZM199.288 49.9999V46.8039L210.1 34.0199L211.018 35.7879H199.526V31.7079H215.302V34.9039L204.49 47.6879L203.538 45.9199H215.608V49.9999H199.288ZM217.749 49.9999V46.8039L228.561 34.0199L229.479 35.7879H217.987V31.7079H233.763V34.9039L222.951 47.6879L221.999 45.9199H234.069V49.9999H217.749Z" fill="white"/>
<path d="M107.016 75V62.504H102.088V59.6H115.508V62.504H110.58V75H107.016ZM122.074 75.176C120.725 75.176 119.537 74.912 118.51 74.384C117.498 73.856 116.714 73.1373 116.156 72.228C115.599 71.304 115.32 70.2553 115.32 69.082C115.32 67.894 115.592 66.8453 116.134 65.936C116.692 65.012 117.447 64.2933 118.4 63.78C119.354 63.252 120.432 62.988 121.634 62.988C122.793 62.988 123.834 63.2373 124.758 63.736C125.697 64.22 126.438 64.924 126.98 65.848C127.523 66.7573 127.794 67.85 127.794 69.126C127.794 69.258 127.787 69.412 127.772 69.588C127.758 69.7493 127.743 69.9033 127.728 70.05H118.114V68.048H125.924L124.604 68.642C124.604 68.026 124.48 67.4907 124.23 67.036C123.981 66.5813 123.636 66.2293 123.196 65.98C122.756 65.716 122.243 65.584 121.656 65.584C121.07 65.584 120.549 65.716 120.094 65.98C119.654 66.2293 119.31 66.5887 119.06 67.058C118.811 67.5127 118.686 68.0553 118.686 68.686V69.214C118.686 69.8593 118.826 70.4313 119.104 70.93C119.398 71.414 119.801 71.788 120.314 72.052C120.842 72.3013 121.458 72.426 122.162 72.426C122.793 72.426 123.343 72.3307 123.812 72.14C124.296 71.9493 124.736 71.6633 125.132 71.282L126.958 73.262C126.416 73.878 125.734 74.3547 124.912 74.692C124.091 75.0147 123.145 75.176 122.074 75.176ZM136.019 75.176C134.743 75.176 133.607 74.9193 132.609 74.406C131.612 73.878 130.827 73.152 130.255 72.228C129.698 71.304 129.419 70.2553 129.419 69.082C129.419 67.894 129.698 66.8453 130.255 65.936C130.827 65.012 131.612 64.2933 132.609 63.78C133.607 63.252 134.743 62.988 136.019 62.988C137.266 62.988 138.351 63.252 139.275 63.78C140.199 64.2933 140.881 65.034 141.321 66.002L138.659 67.432C138.351 66.8747 137.963 66.464 137.493 66.2C137.039 65.936 136.54 65.804 135.997 65.804C135.411 65.804 134.883 65.936 134.413 66.2C133.944 66.464 133.57 66.838 133.291 67.322C133.027 67.806 132.895 68.3927 132.895 69.082C132.895 69.7713 133.027 70.358 133.291 70.842C133.57 71.326 133.944 71.7 134.413 71.964C134.883 72.228 135.411 72.36 135.997 72.36C136.54 72.36 137.039 72.2353 137.493 71.986C137.963 71.722 138.351 71.304 138.659 70.732L141.321 72.184C140.881 73.1373 140.199 73.878 139.275 74.406C138.351 74.9193 137.266 75.176 136.019 75.176ZM150.647 62.988C151.586 62.988 152.422 63.1787 153.155 63.56C153.903 63.9267 154.49 64.4987 154.915 65.276C155.34 66.0387 155.553 67.0213 155.553 68.224V75H152.121V68.752C152.121 67.7987 151.908 67.0947 151.483 66.64C151.072 66.1853 150.486 65.958 149.723 65.958C149.18 65.958 148.689 66.0753 148.249 66.31C147.824 66.53 147.486 66.8747 147.237 67.344C147.002 67.8133 146.885 68.4147 146.885 69.148V75H143.453V58.676H146.885V66.442L146.115 65.452C146.54 64.66 147.149 64.0513 147.941 63.626C148.733 63.2007 149.635 62.988 150.647 62.988ZM166.078 62.988C167.017 62.988 167.853 63.1787 168.586 63.56C169.334 63.9267 169.921 64.4987 170.346 65.276C170.771 66.0387 170.984 67.0213 170.984 68.224V75H167.552V68.752C167.552 67.7987 167.339 67.0947 166.914 66.64C166.503 66.1853 165.917 65.958 165.154 65.958C164.611 65.958 164.12 66.0753 163.68 66.31C163.255 66.53 162.917 66.8747 162.668 67.344C162.433 67.8133 162.316 68.4147 162.316 69.148V75H158.884V63.164H162.162V66.442L161.546 65.452C161.971 64.66 162.58 64.0513 163.372 63.626C164.164 63.2007 165.066 62.988 166.078 62.988ZM180.033 75.176C178.771 75.176 177.649 74.912 176.667 74.384C175.699 73.856 174.929 73.1373 174.357 72.228C173.799 71.304 173.521 70.2553 173.521 69.082C173.521 67.894 173.799 66.8453 174.357 65.936C174.929 65.012 175.699 64.2933 176.667 63.78C177.649 63.252 178.771 62.988 180.033 62.988C181.279 62.988 182.394 63.252 183.377 63.78C184.359 64.2933 185.129 65.0047 185.687 65.914C186.244 66.8233 186.523 67.8793 186.523 69.082C186.523 70.2553 186.244 71.304 185.687 72.228C185.129 73.1373 184.359 73.856 183.377 74.384C182.394 74.912 181.279 75.176 180.033 75.176ZM180.033 72.36C180.605 72.36 181.118 72.228 181.573 71.964C182.027 71.7 182.387 71.326 182.651 70.842C182.915 70.3433 183.047 69.7567 183.047 69.082C183.047 68.3927 182.915 67.806 182.651 67.322C182.387 66.838 182.027 66.464 181.573 66.2C181.118 65.936 180.605 65.804 180.033 65.804C179.461 65.804 178.947 65.936 178.493 66.2C178.038 66.464 177.671 66.838 177.393 67.322C177.129 67.806 176.997 68.3927 176.997 69.082C176.997 69.7567 177.129 70.3433 177.393 70.842C177.671 71.326 178.038 71.7 178.493 71.964C178.947 72.228 179.461 72.36 180.033 72.36ZM189.037 75V58.676H192.469V75H189.037ZM201.506 75.176C200.245 75.176 199.123 74.912 198.14 74.384C197.172 73.856 196.402 73.1373 195.83 72.228C195.273 71.304 194.994 70.2553 194.994 69.082C194.994 67.894 195.273 66.8453 195.83 65.936C196.402 65.012 197.172 64.2933 198.14 63.78C199.123 63.252 200.245 62.988 201.506 62.988C202.753 62.988 203.867 63.252 204.85 63.78C205.833 64.2933 206.603 65.0047 207.16 65.914C207.717 66.8233 207.996 67.8793 207.996 69.082C207.996 70.2553 207.717 71.304 207.16 72.228C206.603 73.1373 205.833 73.856 204.85 74.384C203.867 74.912 202.753 75.176 201.506 75.176ZM201.506 72.36C202.078 72.36 202.591 72.228 203.046 71.964C203.501 71.7 203.86 71.326 204.124 70.842C204.388 70.3433 204.52 69.7567 204.52 69.082C204.52 68.3927 204.388 67.806 204.124 67.322C203.86 66.838 203.501 66.464 203.046 66.2C202.591 65.936 202.078 65.804 201.506 65.804C200.934 65.804 200.421 65.936 199.966 66.2C199.511 66.464 199.145 66.838 198.866 67.322C198.602 67.806 198.47 68.3927 198.47 69.082C198.47 69.7567 198.602 70.3433 198.866 70.842C199.145 71.326 199.511 71.7 199.966 71.964C200.421 72.228 200.934 72.36 201.506 72.36ZM216.076 79.444C214.961 79.444 213.883 79.3047 212.842 79.026C211.815 78.762 210.957 78.3587 210.268 77.816L211.632 75.352C212.131 75.7627 212.761 76.0853 213.524 76.32C214.301 76.5693 215.064 76.694 215.812 76.694C217.029 76.694 217.909 76.4227 218.452 75.88C219.009 75.3373 219.288 74.5307 219.288 73.46V71.678L219.508 68.708L219.464 65.716V63.164H222.72V73.02C222.72 75.22 222.148 76.8407 221.004 77.882C219.86 78.9233 218.217 79.444 216.076 79.444ZM215.548 74.428C214.448 74.428 213.451 74.1933 212.556 73.724C211.676 73.24 210.965 72.5727 210.422 71.722C209.894 70.8567 209.63 69.852 209.63 68.708C209.63 67.5493 209.894 66.5447 210.422 65.694C210.965 64.8287 211.676 64.1613 212.556 63.692C213.451 63.2227 214.448 62.988 215.548 62.988C216.545 62.988 217.425 63.1933 218.188 63.604C218.951 64 219.545 64.6233 219.97 65.474C220.395 66.31 220.608 67.388 220.608 68.708C220.608 70.0133 220.395 71.0913 219.97 71.942C219.545 72.778 218.951 73.4013 218.188 73.812C217.425 74.2227 216.545 74.428 215.548 74.428ZM216.23 71.612C216.831 71.612 217.367 71.4947 217.836 71.26C218.305 71.0107 218.672 70.666 218.936 70.226C219.2 69.786 219.332 69.28 219.332 68.708C219.332 68.1213 219.2 67.6153 218.936 67.19C218.672 66.75 218.305 66.4127 217.836 66.178C217.367 65.9287 216.831 65.804 216.23 65.804C215.629 65.804 215.093 65.9287 214.624 66.178C214.155 66.4127 213.781 66.75 213.502 67.19C213.238 67.6153 213.106 68.1213 213.106 68.708C213.106 69.28 213.238 69.786 213.502 70.226C213.781 70.666 214.155 71.0107 214.624 71.26C215.093 71.4947 215.629 71.612 216.23 71.612ZM226.134 75V63.164H229.566V75H226.134ZM227.85 61.514C227.22 61.514 226.706 61.3307 226.31 60.964C225.914 60.5973 225.716 60.1427 225.716 59.6C225.716 59.0573 225.914 58.6027 226.31 58.236C226.706 57.8693 227.22 57.686 227.85 57.686C228.481 57.686 228.994 57.862 229.39 58.214C229.786 58.5513 229.984 58.9913 229.984 59.534C229.984 60.106 229.786 60.5827 229.39 60.964C229.009 61.3307 228.496 61.514 227.85 61.514ZM238.845 75.176C237.496 75.176 236.308 74.912 235.281 74.384C234.269 73.856 233.485 73.1373 232.927 72.228C232.37 71.304 232.091 70.2553 232.091 69.082C232.091 67.894 232.363 66.8453 232.905 65.936C233.463 65.012 234.218 64.2933 235.171 63.78C236.125 63.252 237.203 62.988 238.405 62.988C239.564 62.988 240.605 63.2373 241.529 63.736C242.468 64.22 243.209 64.924 243.751 65.848C244.294 66.7573 244.565 67.85 244.565 69.126C244.565 69.258 244.558 69.412 244.543 69.588C244.529 69.7493 244.514 69.9033 244.499 70.05H234.885V68.048H242.695L241.375 68.642C241.375 68.026 241.251 67.4907 241.001 67.036C240.752 66.5813 240.407 66.2293 239.967 65.98C239.527 65.716 239.014 65.584 238.427 65.584C237.841 65.584 237.32 65.716 236.865 65.98C236.425 66.2293 236.081 66.5887 235.831 67.058C235.582 67.5127 235.457 68.0553 235.457 68.686V69.214C235.457 69.8593 235.597 70.4313 235.875 70.93C236.169 71.414 236.572 71.788 237.085 72.052C237.613 72.3013 238.229 72.426 238.933 72.426C239.564 72.426 240.114 72.3307 240.583 72.14C241.067 71.9493 241.507 71.6633 241.903 71.282L243.729 73.262C243.187 73.878 242.505 74.3547 241.683 74.692C240.862 75.0147 239.916 75.176 238.845 75.176ZM251.052 75.176C250.04 75.176 249.065 75.0587 248.126 74.824C247.202 74.5747 246.469 74.2667 245.926 73.9L247.07 71.436C247.613 71.7733 248.251 72.052 248.984 72.272C249.732 72.4773 250.466 72.58 251.184 72.58C251.976 72.58 252.534 72.4847 252.856 72.294C253.194 72.1033 253.362 71.8393 253.362 71.502C253.362 71.2233 253.23 71.018 252.966 70.886C252.717 70.7393 252.38 70.6293 251.954 70.556C251.529 70.4827 251.06 70.4093 250.546 70.336C250.048 70.2627 249.542 70.1673 249.028 70.05C248.515 69.918 248.046 69.7273 247.62 69.478C247.195 69.2287 246.85 68.8913 246.586 68.466C246.337 68.0407 246.212 67.4907 246.212 66.816C246.212 66.068 246.425 65.408 246.85 64.836C247.29 64.264 247.921 63.8167 248.742 63.494C249.564 63.1567 250.546 62.988 251.69 62.988C252.497 62.988 253.318 63.076 254.154 63.252C254.99 63.428 255.687 63.6847 256.244 64.022L255.1 66.464C254.528 66.1267 253.949 65.8993 253.362 65.782C252.79 65.65 252.233 65.584 251.69 65.584C250.928 65.584 250.37 65.6867 250.018 65.892C249.666 66.0973 249.49 66.3613 249.49 66.684C249.49 66.9773 249.615 67.1973 249.864 67.344C250.128 67.4907 250.473 67.608 250.898 67.696C251.324 67.784 251.786 67.8647 252.284 67.938C252.798 67.9967 253.311 68.092 253.824 68.224C254.338 68.356 254.8 68.5467 255.21 68.796C255.636 69.0307 255.98 69.3607 256.244 69.786C256.508 70.1967 256.64 70.7393 256.64 71.414C256.64 72.1473 256.42 72.8 255.98 73.372C255.54 73.9293 254.902 74.3693 254.066 74.692C253.245 75.0147 252.24 75.176 251.052 75.176Z" fill="#276ECE"/>
</svg>
